<svg width="800" height="600" viewBox="0 0 800 600" fill="none" xmlns="http://www.w3.org/2000/svg">
  <rect width="800" height="600" rx="32" fill="url(#paint0_linear)"/>
  <rect x="120" y="120" width="560" height="360" rx="28" fill="white" opacity="0.9"/>
  <rect x="160" y="160" width="480" height="120" rx="24" fill="url(#paint1_linear)" opacity="0.95"/>
  <g filter="url(#shadow1)">
    <rect x="200" y="320" width="180" height="120" rx="18" fill="white"/>
    <rect x="420" y="320" width="180" height="120" rx="18" fill="white" opacity="0.9"/>
  </g>
  <circle cx="260" cy="380" r="32" fill="#1952FF" opacity="0.9"/>
  <path d="M250 380H270" stroke="white" stroke-width="8" stroke-linecap="round"/>
  <path d="M260 370V390" stroke="white" stroke-width="8" stroke-linecap="round"/>
  <path d="M480 350H540" stroke="#1952FF" stroke-width="8" stroke-linecap="round"/>
  <path d="M480 380H560" stroke="#1952FF" stroke-width="8" stroke-linecap="round" opacity="0.8"/>
  <path d="M480 410H520" stroke="#1952FF" stroke-width="8" stroke-linecap="round" opacity="0.6"/>
  <circle cx="520" cy="220" r="54" fill="url(#paint2_linear)"/>
  <path d="M520 184C528 196 546 214 560 218C544 226 530 240 520 256C510 240 496 226 480 218C496 214 512 196 520 184Z" fill="white" fill-opacity="0.9"/>
  <path d="M520 276C540 292 570 306 598 308C582 324 552 344 520 344C488 344 458 324 442 308C470 306 500 292 520 276Z" fill="white" fill-opacity="0.75"/>
  <defs>
    <linearGradient id="paint0_linear" x1="0" y1="0" x2="800" y2="600" gradientUnits="userSpaceOnUse">
      <stop stop-color="#F5F7FF"/>
      <stop offset="1" stop-color="#DDE6FF"/>
    </linearGradient>
    <linearGradient id="paint1_linear" x1="120" y1="120" x2="520" y2="460" gradientUnits="userSpaceOnUse">
      <stop stop-color="#1952FF"/>
      <stop offset="1" stop-color="#5A7CFF"/>
    </linearGradient>
    <linearGradient id="paint2_linear" x1="260" y1="180" x2="420" y2="320" gradientUnits="userSpaceOnUse">
      <stop stop-color="#FF9A8B"/>
      <stop offset="1" stop-color="#FF6A88"/>
    </linearGradient>
    <filter id="shadow1" x="180" y="300" width="460" height="160" filterUnits="userSpaceOnUse" color-interpolation-filters="sRGB">
      <feOffset dy="12"/>
      <feGaussianBlur stdDeviation="16"/>
      <feColorMatrix type="matrix" values="0 0 0 0 0 0 0 0 0 0.13 0 0 0 0 0.37 0 0 0 0.2 0"/>
      <feBlend in2="SourceGraphic" result="shape"/>
    </filter>
  </defs>
</svg>
