<svg width="800" height="600" viewBox="0 0 800 600" fill="none" xmlns="http://www.w3.org/2000/svg">
  <rect width="800" height="600" rx="32" fill="url(#paint0_linear)"/>
  <rect x="140" y="120" width="520" height="360" rx="32" fill="white" opacity="0.96"/>
  <rect x="200" y="180" width="400" height="200" rx="24" fill="#F1F5FF"/>
  <rect x="220" y="200" width="180" height="160" rx="18" fill="url(#paint1_linear)"/>
  <path d="M240 336L286 274L314 308L344 260L360 336H240Z" fill="white" fill-opacity="0.9"/>
  <rect x="420" y="220" width="140" height="24" rx="12" fill="#1952FF" opacity="0.7"/>
  <rect x="420" y="260" width="160" height="16" rx="8" fill="#1952FF" opacity="0.35"/>
  <rect x="420" y="290" width="120" height="16" rx="8" fill="#1952FF" opacity="0.25"/>
  <rect x="420" y="320" width="180" height="16" rx="8" fill="#1952FF" opacity="0.2"/>
  <rect x="420" y="350" width="140" height="16" rx="8" fill="#1952FF" opacity="0.2"/>
  <rect x="200" y="400" width="400" height="40" rx="20" fill="#1952FF" fill-opacity="0.12"/>
  <circle cx="220" cy="420" r="14" fill="#1952FF"/>
  <circle cx="260" cy="420" r="14" fill="#1952FF" opacity="0.8"/>
  <circle cx="300" cy="420" r="14" fill="#1952FF" opacity="0.6"/>
  <defs>
    <linearGradient id="paint0_linear" x1="80" y1="80" x2="720" y2="520" gradientUnits="userSpaceOnUse">
      <stop stop-color="#F6FEFF"/>
      <stop offset="1" stop-color="#DBF0FF"/>
    </linearGradient>
    <linearGradient id="paint1_linear" x1="220" y1="200" x2="380" y2="360" gradientUnits="userSpaceOnUse">
      <stop stop-color="#1952FF"/>
      <stop offset="1" stop-color="#2DD4BF"/>
    </linearGradient>
  </defs>
</svg>
